<svg viewBox="0 0 2000 1500" version="1.1" xmlns="http://www.w3.org/2000/svg" xmlns:xlink="http://www.w3.org/1999/xlink">
    <defs></defs>
    <g id="dijkstra--Page-1" stroke="none" stroke-width="1" fill="none" fill-rule="evenodd">
        <g id="dijkstra--dijkstra">
            <g id="dijkstra--Legs" transform="translate(1154.023461, 750.000000) scale(-1, 1) translate(-1154.023461, -750.000000) translate(864.523461, 0.000000)" fill="#D8D8D8">
                <path d="M237.781618,310.699609 L237.781618,624.95579 L341.104449,624.95579 L341.104449,311.168156 L578.520396,73.7522093 L505.460121,0.691934255 L289.677307,216.474748 L73.8944933,0.691934255 L0.834218225,73.7522093 L237.781618,310.699609 Z" id="dijkstra--Leg-Top"></path>
                <path d="M237.781618,1185.1598 L237.781618,1499.41598 L341.104449,1499.41598 L341.104449,1185.62835 L578.520396,948.212401 L505.460121,875.152125 L289.677307,1090.93494 L73.8944933,875.152125 L0.834218225,948.212401 L237.781618,1185.1598 Z" id="dijkstra--Leg-Bottom" transform="translate(289.677307, 1187.284053) scale(1, -1) translate(-289.677307, -1187.284053) "></path>
            </g>
            <g id="dijkstra--Head" transform="translate(0.000000, 551.580248)">
                <polygon id="dijkstra--Head-Shape" fill="#F8E81C" transform="translate(176.828588, 198.295155) scale(-1, 1) translate(-176.828588, -198.295155) " points="-4.54747351e-13 0.784976352 353.657177 0.784976352 307.836083 47.6482272 353.657177 99.5400657 307.836083 146.403317 353.657177 198.295155 307.836083 248.537011 353.657177 297.050245 307.836083 343.913495 353.657177 395.805334 -4.54747351e-13 395.805334"></polygon>
                <rect id="dijkstra--Eye-Top" fill="#9012FE" transform="translate(134.983655, 109.668793) scale(-1, 1) translate(-134.983655, -109.668793) " x="91.7888856" y="64.0895208" width="86.3895394" height="91.158544"></rect>
                <rect id="dijkstra--Eye-Bottom" fill="#9012FE" transform="translate(134.983655, 286.921517) scale(-1, 1) translate(-134.983655, -286.921517) " x="91.7888856" y="241.342245" width="86.3895394" height="91.158544"></rect>
            </g>
            <g class="Body" transform="translate(1153.500000, 750.133786) scale(-1, 1) translate(-1153.500000, -750.133786) translate(307.000000, 414.133786)">
                <path d="M1446.6673,581.137753 C1420.57807,637.181885 1385.54384,671.483233 1347.02577,671.483233 C1307.98076,671.483233 1272.51556,636.236951 1246.31854,578.825455 C1220.12152,636.236959 1184.65632,671.483233 1145.61132,671.483233 C1107.09324,671.483233 1072.05901,637.181873 1045.96977,581.137723 C1019.88053,637.181885 984.8463,671.483233 946.328231,671.483233 C907.54731,671.483233 872.297942,636.712135 846.153846,579.987364 C820.00974,636.712145 784.760377,671.483233 745.979461,671.483233 C707.461385,671.483233 672.427153,637.181873 646.337919,581.137723 C620.248672,637.181885 585.214446,671.483233 546.696377,671.483233 C507.651364,671.483233 472.186167,636.236951 445.989149,578.825455 C419.792124,636.236959 384.326931,671.483233 345.281922,671.483233 C306.763846,671.483233 271.729614,637.181873 245.64038,581.137723 C219.551133,637.181885 184.516907,671.483233 145.998837,671.483233 C65.365906,671.483233 0,521.166591 0,335.741616 C0,150.316642 65.365906,0 145.998837,0 C184.516907,0 219.551133,34.3013479 245.640366,90.3454797 C271.729614,34.3013603 306.763846,0 345.281922,0 C384.326931,0 419.792124,35.2462736 445.98914,92.6577585 C472.186167,35.2462816 507.651364,0 546.696377,0 C585.214446,0 620.248672,34.3013479 646.337905,90.3454797 C672.427153,34.3013603 707.461385,0 745.979461,0 C784.760377,0 820.00974,34.7710881 846.153835,91.4958439 C872.297942,34.7710982 907.54731,0 946.328231,0 C984.8463,0 1019.88053,34.3013479 1045.96976,90.3454797 C1072.05901,34.3013603 1107.09324,0 1145.61132,0 C1184.65632,0 1220.12152,35.2462736 1246.31853,92.6577585 C1272.51556,35.2462816 1307.98076,0 1347.02577,0 C1385.54384,0 1420.57807,34.3013479 1446.6673,90.3454797 C1472.75655,34.3013603 1507.79078,0 1546.30885,0 C1626.94179,0 1692.30769,150.316642 1692.30769,335.741616 C1692.30769,521.166591 1626.94179,671.483233 1546.30885,671.483233 C1507.79078,671.483233 1472.75655,637.181873 1446.66731,581.137723 Z" id="dijkstra--Body-Shape" fill="#9012FE"></path>
                <ellipse id="dijkstra--Body-In-1" fill="#000000" cx="515.625" cy="336.457483" rx="330.528846" ry="88.7675063"></ellipse>
                <ellipse id="dijkstra--Body-In-2" fill="#000000" cx="1410.88599" cy="336.457483" rx="181.318681" ry="88.7675063"></ellipse>
            </g>
        </g>
    </g>
</svg>
