<svg viewBox="0 0 2000 1500" version="1.1" xmlns="http://www.w3.org/2000/svg" xmlns:xlink="http://www.w3.org/1999/xlink">
    <defs></defs>
    <g id="marvin-4--Page-1" stroke="none" stroke-width="1" fill="none" fill-rule="evenodd">
        <g id="marvin-4--marvin-4">
            <g id="marvin-4--Leg-Top" transform="translate(841.000000, 0.000000)" fill="#EF001D">
                <g id="marvin-4--Leg-Top-3" transform="translate(421.975993, 0.000000)">
                    <path d="M100.963989,694.716696 L1.38689384,694.718905 L0.317636196,118.423996 C0.317636196,118.423996 38.0766932,-0.971802181 50.6399202,0.274881163 C63.2031472,1.52156451 100.963989,116.653519 100.963989,116.653519 L100.963989,694.716696 Z" id="marvin-4--Path-2"></path>
                </g>
                <g id="marvin-4--Leg-Top-2" transform="translate(211.449677, 0.000000)">
                    <path d="M100.963989,694.716696 L1.38689384,694.718905 L0.317636196,118.423996 C0.317636196,118.423996 38.0766932,-0.971802181 50.6399202,0.274881163 C63.2031472,1.52156451 100.963989,116.653519 100.963989,116.653519 L100.963989,694.716696 Z" id="marvin-4--Path-2"></path>
                </g>
                <g id="marvin-4--Leg-Top-1">
                    <path d="M100.963989,694.716696 L1.38689384,694.718905 L0.317636196,118.423996 C0.317636196,118.423996 38.0766932,-0.971802181 50.6399202,0.274881163 C63.2031472,1.52156451 100.963989,116.653519 100.963989,116.653519 L100.963989,694.716696 Z" id="marvin-4--Path-2"></path>
                </g>
            </g>
            <g id="marvin-4--Leg-Bottom" transform="translate(839.000000, 526.000000)" fill="#EF001D">
                <g id="marvin-4--Leg-Bottom-3" transform="translate(472.475993, 347.867620) scale(1, -1) translate(-472.475993, -347.867620) translate(421.975993, 0.867620)">
                    <path d="M100.963989,693.601581 L1.38689384,693.603787 L0.317636196,118.23391 C0.317636196,118.23391 38.0766932,-0.970242306 50.6399202,0.274439942 C63.2031472,1.51912219 100.963989,116.466274 100.963989,116.466274 L100.963989,693.601581 Z" id="marvin-4--Path-2"></path>
                </g>
                <g id="marvin-4--Leg-Bottom-2" transform="translate(261.949677, 347.867620) scale(1, -1) translate(-261.949677, -347.867620) translate(211.449677, 0.867620)">
                    <path d="M100.963989,693.601581 L1.38689384,693.603787 L0.317636196,118.23391 C0.317636196,118.23391 38.0766932,-0.970242306 50.6399202,0.274439942 C63.2031472,1.51912219 100.963989,116.466274 100.963989,116.466274 L100.963989,693.601581 Z" id="marvin-4--Path-2"></path>
                </g>
                <g id="marvin-4--Leg-Bottom-1" transform="translate(50.500000, 347.867620) scale(1, -1) translate(-50.500000, -347.867620) translate(0.000000, 0.867620)">
                    <path d="M100.963989,693.601581 L1.38689384,693.603787 L0.317636196,118.23391 C0.317636196,118.23391 38.0766932,-0.970242306 50.6399202,0.274439942 C63.2031472,1.51912219 100.963989,116.466274 100.963989,116.466274 L100.963989,693.601581 Z" id="marvin-4--Path-2"></path>
                </g>
            </g>
            <g class="Body" transform="translate(201.000000, 384.000000)">
                <path d="M441.288658,553.070068 C441.288658,553.070068 1.58480612e-14,481.871971 0,371.387688 C0,260.903405 441.288658,189.703375 441.288658,189.703375 C441.288658,189.703375 630.700293,1.4452953e-14 920.110108,0 C1209.51992,0 1356.27474,189.703375 1356.27474,189.703375 C1356.27474,189.703375 1796.58353,260.316558 1798.0215,371.386722 C1799.45948,482.456886 1362.00482,558.104864 1362.00482,558.104864 C1362.00482,558.104864 1177.72346,737.010904 920.110108,737.010904 C662.496754,737.010904 441.288658,553.070068 441.288658,553.070068 Z" id="marvin-4--Body-1" fill="#F6A623"></path>
                <g id="marvin-4--Body-Stuff" transform="translate(565.789167, 179.923028)" fill="#EF001D">
                    <ellipse id="marvin-4--Oval-2" cx="988.035527" cy="188.582425" rx="119.44438" ry="61.5779346"></ellipse>
                    <ellipse id="marvin-4--Oval" cx="60.2460687" cy="188.582425" rx="60.2460687" ry="188.582425"></ellipse>
                </g>
            </g>
            <g id="marvin-4--Head-3" transform="translate(1.000000, 460.000000)">
                <path d="M232.091691,157.389017 C252.787023,63.7601112 293.782176,0 340.974212,0 C409.020757,0 464.183381,132.563447 464.183381,296.088747 C464.183381,459.614046 409.020757,592.177493 340.974212,592.177493 C293.782176,592.177493 252.787023,528.417382 232.091691,434.788476 C211.396358,528.417382 170.401205,592.177493 123.209169,592.177493 C55.162624,592.177493 0,459.614046 0,296.088747 C0,132.563447 55.162624,0 123.209169,0 C170.401205,0 211.396358,63.7601112 232.091691,157.389017 Z" id="marvin-4--Combined-Shape" fill="#2DE7D1"></path>
                <g id="marvin-4--Eyes" transform="translate(76.135898, 83.028362)" fill="#4A4A4A">
                    <ellipse id="marvin-4--Oval" cx="47.4826034" cy="380.146386" rx="47.4826034" ry="39.7987191"></ellipse>
                    <ellipse id="marvin-4--Oval" cx="47.4826034" cy="39.7987191" rx="47.4826034" ry="39.7987191"></ellipse>
                </g>
            </g>
        </g>
    </g>
</svg>
