<svg viewBox="0 0 2000 1500" version="1.1" xmlns="http://www.w3.org/2000/svg" xmlns:xlink="http://www.w3.org/1999/xlink">
    <defs></defs>
    <g id="marvin-3--Page-1" stroke="none" stroke-width="1" fill="none" fill-rule="evenodd">
        <g id="marvin-3--marvin-3">
            <g id="marvin-3--Leg-Bottom" transform="translate(869.000000, 646.000000)" fill="#4A4A4A">
                <g id="marvin-3--Leg-Bottom-2" transform="translate(335.089568, 0.000000)">
                    <polygon id="marvin-3--Rectangle-Leg" points="94.8366702 582.761578 1.00753611 582.763805 0 1.78486787 94.8366702 0"></polygon>
                </g>
                <g id="marvin-3--Leg-Bottom-1">
                    <polygon id="marvin-3--Rectangle-Leg" points="94.8366702 582.761578 1.00753611 582.763805 0 1.78486787 94.8366702 0"></polygon>
                </g>
            </g>
            <g id="marvin-3--Leg-Top" transform="translate(1084.000000, 291.500000) scale(-1, 1) translate(-1084.000000, -291.500000) translate(868.000000, 0.000000)" fill="#4A4A4A">
                <g id="marvin-3--Leg-Top-2" transform="translate(336.089568, 0.000000)">
                    <polygon id="marvin-3--Rectangle-Leg" transform="translate(47.418335, 291.381903) scale(-1, -1) translate(-47.418335, -291.381903) " points="94.8366702 582.761578 1.00753611 582.763805 0 1.78486787 94.8366702 0"></polygon>
                </g>
                <g id="marvin-3--Leg-Top-1">
                    <polygon id="marvin-3--Rectangle-Leg" transform="translate(47.418335, 291.381903) scale(-1, -1) translate(-47.418335, -291.381903) " points="94.8366702 582.761578 1.00753611 582.763805 0 1.78486787 94.8366702 0"></polygon>
                </g>
            </g>
            <g class="Body" transform="translate(190.727081, 334.898844)">
                <path d="M443.808571,623.003061 C443.808571,623.003061 1.59385592e-14,542.802314 0,418.347836 C0,293.893358 443.808571,213.690435 443.808571,213.690435 C443.808571,213.690435 634.301812,1.62804579e-14 925.364258,0 C1216.4267,0 1364.01954,213.690435 1364.01954,213.690435 C1364.01954,213.690435 1806.84265,293.232307 1808.28883,418.346748 C1809.73502,543.461189 1369.78234,628.674482 1369.78234,628.674482 C1369.78234,628.674482 1184.44867,830.202312 925.364258,830.202312 C666.279842,830.202312 443.808571,623.003061 443.808571,623.003061 Z" id="marvin-3--Body-1" fill="#F6A623"></path>
                <g id="marvin-3--Body-Stuff" transform="translate(569.020021, 202.673410)" fill="#EF001D">
                    <ellipse id="marvin-3--Oval-2" cx="993.677555" cy="212.427746" rx="120.126449" ry="69.3641618"></ellipse>
                    <ellipse id="marvin-3--Oval" cx="60.5900948" cy="212.427746" rx="60.5900948" ry="212.427746"></ellipse>
                </g>
            </g>
            <g id="marvin-3--Head-3" transform="translate(1.000000, 460.000000)">
                <path d="M232.091691,157.389017 C252.787023,63.7601112 293.782176,0 340.974212,0 C409.020757,0 464.183381,132.563447 464.183381,296.088747 C464.183381,459.614046 409.020757,592.177493 340.974212,592.177493 C293.782176,592.177493 252.787023,528.417382 232.091691,434.788476 C211.396358,528.417382 170.401205,592.177493 123.209169,592.177493 C55.162624,592.177493 0,459.614046 0,296.088747 C0,132.563447 55.162624,0 123.209169,0 C170.401205,0 211.396358,63.7601112 232.091691,157.389017 Z" id="marvin-3--Combined-Shape" fill="#2DE7D1"></path>
                <g id="marvin-3--Eyes" transform="translate(76.135898, 83.028362)" fill="#4A4A4A">
                    <ellipse id="marvin-3--Oval" cx="47.4826034" cy="380.146386" rx="47.4826034" ry="39.7987191"></ellipse>
                    <ellipse id="marvin-3--Oval" cx="47.4826034" cy="39.7987191" rx="47.4826034" ry="39.7987191"></ellipse>
                </g>
            </g>
        </g>
    </g>
</svg>
