<svg viewBox="0 0 2000 1500" version="1.1" xmlns="http://www.w3.org/2000/svg" xmlns:xlink="http://www.w3.org/1999/xlink">
    <defs></defs>
    <g id="marvin-2--Page-1" stroke="none" stroke-width="1" fill="none" fill-rule="evenodd">
        <g id="marvin-2--marvin-2">
            <g id="marvin-2--Leg-Top" transform="translate(1215.151515, 426.099495) scale(-1, 1) translate(-1215.151515, -426.099495) translate(914.141414, 0.000000)" fill="#7ED321">
                <path d="M376.262626,80.5176673 L376.262626,852.198991 L225.757576,852.198991 L225.757576,80.5176673 L0,80.5176673 L0,0 L602.020202,0 L602.020202,80.5176673 L376.262626,80.5176673 Z" id="marvin-2--Combined-Shape"></path>
            </g>
            <g id="marvin-2--Leg-Bottom" transform="translate(1215.151515, 806.099495) scale(-1, -1) translate(-1215.151515, -806.099495) translate(914.141414, 380.000000)" fill="#7ED321">
                <path d="M376.262626,80.5176673 L376.262626,852.198991 L225.757576,852.198991 L225.757576,80.5176673 L0,80.5176673 L0,0 L602.020202,0 L602.020202,80.5176673 L376.262626,80.5176673 Z" id="marvin-2--Combined-Shape"></path>
            </g>
            <g class="Body" transform="translate(1215.151515, 749.459265) scale(-1, 1) translate(-1215.151515, -749.459265) translate(430.303030, 360.129776)">
                <path d="M1019.19199,129.182374 C961.406991,49.8770691 877.597709,0 784.343434,0 C691.360527,0 607.767722,49.5872102 550,128.490795 C492.232278,49.5872102 408.639473,0 315.656566,0 C141.324258,0 0,174.308749 0,389.329488 C0,604.350227 141.324258,778.658976 315.656566,778.658976 C408.639473,778.658976 492.232278,729.071766 550,650.168182 C607.767722,729.071766 691.360527,778.658976 784.343434,778.658976 C877.597709,778.658976 961.406991,728.781907 1019.19199,649.476602 C1076.97691,728.781946 1160.78617,778.658976 1254.0404,778.658976 C1428.37271,778.658976 1569.69697,604.350227 1569.69697,389.329488 C1569.69697,174.308749 1428.37271,0 1254.0404,0 C1160.78617,0 1076.97691,49.8770303 1019.19192,129.182282 Z" id="marvin-2--Combined-Shape" fill="#F8E81C"></path>
                <ellipse id="marvin-2--Oval-2" fill="#9012FE" cx="212.121212" cy="193.583273" rx="40.4040404" ry="43.258832"></ellipse>
                <ellipse id="marvin-2--Oval-2" fill="#9012FE" cx="337.373737" cy="389.329488" rx="40.4040404" ry="43.258832"></ellipse>
                <ellipse id="marvin-2--Oval-2" fill="#9012FE" cx="207.070707" cy="482.335977" rx="40.4040404" ry="43.258832"></ellipse>
                <ellipse id="marvin-2--Oval-2" fill="#9012FE" cx="734.343434" cy="236.842105" rx="40.4040404" ry="43.258832"></ellipse>
                <ellipse id="marvin-2--Oval-2" fill="#9012FE" cx="997.979798" cy="389.329488" rx="40.4040404" ry="43.258832"></ellipse>
                <ellipse id="marvin-2--Oval-2" fill="#9012FE" cx="825.252525" cy="525.594809" rx="40.4040404" ry="43.258832"></ellipse>
                <ellipse id="marvin-2--Oval-2" fill="#9012FE" cx="1313.13131" cy="150.324441" rx="40.4040404" ry="43.258832"></ellipse>
                <ellipse id="marvin-2--Oval-2" fill="#9012FE" cx="1282.82828" cy="608.868061" rx="40.4040404" ry="43.258832"></ellipse>
                <ellipse id="marvin-2--Oval-2" fill="#9012FE" cx="340.40404" cy="554.794521" rx="40.4040404" ry="43.258832"></ellipse>
                <ellipse id="marvin-2--Oval-2" fill="#9012FE" cx="222.222222" cy="638.067772" rx="40.4040404" ry="43.258832"></ellipse>
            </g>
            <g id="marvin-2--Head-3" transform="translate(1.000000, 460.000000)">
                <path d="M232.091691,157.389017 C252.787023,63.7601112 293.782176,0 340.974212,0 C409.020757,0 464.183381,132.563447 464.183381,296.088747 C464.183381,459.614046 409.020757,592.177493 340.974212,592.177493 C293.782176,592.177493 252.787023,528.417382 232.091691,434.788476 C211.396358,528.417382 170.401205,592.177493 123.209169,592.177493 C55.162624,592.177493 0,459.614046 0,296.088747 C0,132.563447 55.162624,0 123.209169,0 C170.401205,0 211.396358,63.7601112 232.091691,157.389017 Z" id="marvin-2--Combined-Shape" fill="#2DE7D1"></path>
                <g id="marvin-2--Eyes" transform="translate(76.135898, 83.028362)" fill="#4A4A4A">
                    <ellipse id="marvin-2--Oval" cx="47.4826034" cy="380.146386" rx="47.4826034" ry="39.7987191"></ellipse>
                    <ellipse id="marvin-2--Oval" cx="47.4826034" cy="39.7987191" rx="47.4826034" ry="39.7987191"></ellipse>
                </g>
            </g>
        </g>
    </g>
</svg>
