<svg viewBox="0 0 2000 1500" version="1.1" xmlns="http://www.w3.org/2000/svg" xmlns:xlink="http://www.w3.org/1999/xlink">
    <defs>
        <path d="M1565.07608,349.726269 C1565.69938,346.338082 1566.17505,342.885766 1566.49483,339.378843 C1600.77916,318.560254 1624.20678,276.756529 1624.20678,228.623952 C1624.20678,168.000223 1587.20828,117.535965 1537.92456,106.210653 C1535.35324,62.9079887 1504.78305,28.7655038 1467.07029,28.7655038 C1448.0247,28.7655038 1430.71247,37.4709561 1417.9032,51.6528255 C1396.03761,20.6533321 1356.41432,0 1311.1198,0 C1262.98722,0 1221.1835,23.4276218 1200.36491,57.7119464 C1174.36535,60.082733 1151.36726,71.0220335 1135.25063,87.1620541 C1132.45597,86.7487598 1129.61335,86.4534241 1126.73011,86.2822168 C1115.4048,36.9985003 1064.94054,0 1004.31681,0 C956.184238,0 914.380512,23.4276218 893.561924,57.7119464 C887.557804,58.259436 881.71375,59.2638796 876.077547,60.6838012 C855.753722,48.3612085 830.942568,41.1328686 804.146574,41.1328686 C771.986642,41.1328686 742.652091,51.5916292 720.514635,68.7594632 C702.541012,28.4846122 657.169488,0 603.976334,0 C555.843757,0 514.040032,23.4276218 493.221444,57.7119464 C487.217324,58.259436 481.37327,59.2638796 475.737066,60.6838012 C455.413241,48.3612085 430.602088,41.1328686 403.806094,41.1328686 C355.673517,41.1328686 313.869792,64.5604904 293.051203,98.844815 C280.170861,100.019318 268.027158,103.296768 257.091851,108.267689 C252.137434,106.998425 246.990798,106.329395 241.71095,106.329395 C203.998193,106.329395 173.428004,140.47188 170.856679,183.774544 C121.572963,195.099856 84.5744623,245.564114 84.5744623,306.187844 C84.5744623,321.336115 86.8949333,335.857523 91.1440081,349.295195 C50.734514,367.190879 22.129692,412.641518 22.129692,465.946796 C22.129692,514.079372 45.5573138,555.883098 79.8416384,576.701686 C84.4128817,626.832847 120.839977,665.805244 164.981044,665.805244 C168.826974,665.805244 172.61431,665.508849 176.32714,664.934609 C186.349103,682.561142 200.108342,697.055465 216.284464,706.878147 C220.855708,757.009308 257.282803,795.981706 301.42387,795.981706 C308.514546,795.981706 315.40605,794.974208 321.998663,793.075475 C344.606337,812.677379 375.972344,824.794145 410.66551,824.794145 C458.798086,824.794145 500.601812,801.366523 521.4204,767.082198 C547.419954,764.711412 570.41805,753.772111 586.534683,737.63209 C589.329336,738.045385 592.171961,738.34072 595.055195,738.511928 C606.380507,787.795644 656.844766,824.794145 717.468495,824.794145 C765.601071,824.794145 807.404797,801.366523 828.223385,767.082198 C834.227505,766.534709 840.071559,765.530265 845.707763,764.110343 C866.031587,776.432936 890.842741,783.661276 917.638735,783.661276 C949.798667,783.661276 979.133219,773.202515 1001.27067,756.034681 C1019.2443,796.309532 1064.61582,824.794145 1117.80898,824.794145 C1165.94155,824.794145 1207.74528,801.366523 1228.56387,767.082198 C1239.26475,766.106431 1249.45719,763.679178 1258.87068,760.035243 C1278.01282,798.144129 1322.09649,824.721662 1373.47813,824.721662 C1421.61071,824.721662 1463.41443,801.29404 1484.23302,767.009716 C1534.36418,762.438472 1573.33658,726.011378 1573.33658,681.87031 C1573.33658,655.112775 1558.98958,631.191485 1536.54318,615.465094 C1556.2832,592.837481 1568.49686,561.359642 1568.49686,526.528037 C1568.49686,495.608347 1558.82922,467.300319 1542.82633,445.489139 C1561.64265,429.907098 1573.33658,408.042385 1573.33658,383.863043 C1573.33658,371.735123 1570.38916,360.189875 1565.07608,349.726271 Z" id="marvin--path-1"></path>
        <mask id="marvin--mask-2" maskContentUnits="userSpaceOnUse" maskUnits="objectBoundingBox" x="0" y="0" width="1646.20527" height="824.794145" fill="white">
            <use xlink:href="#marvin--path-1"></use>
        </mask>
    </defs>
    <g id="marvin--Page-1" stroke="none" stroke-width="1" fill="none" fill-rule="evenodd">
        <g id="marvin--marvin">
            <g id="marvin--Leg-Bottom" transform="translate(1177.500000, 806.500000) scale(-1, -1) translate(-1177.500000, -806.500000) translate(876.000000, 380.000000)" fill="#7ED321">
                <path d="M376.262626,80.5176673 L376.262626,852.198991 L225.757576,852.198991 L225.757576,80.5176673 L9.09494702e-13,80.5176673 L9.09494702e-13,0 L602.020202,0 L602.020202,80.5176673 L376.262626,80.5176673 Z" id="marvin--Combined-Shape"></path>
            </g>
            <g id="marvin--Leg-Top" transform="translate(1177.500000, 426.500000) scale(-1, 1) translate(-1177.500000, -426.500000) translate(876.000000, 0.000000)" fill="#7ED321">
                <path d="M376.262626,80.5176673 L376.262626,852.198991 L225.757576,852.198991 L225.757576,80.5176673 L9.09494702e-13,80.5176673 L9.09494702e-13,0 L602.020202,0 L602.020202,80.5176673 L376.262626,80.5176673 Z" id="marvin--Combined-Shape"></path>
            </g>
            <g id="marvin--Head-3" transform="translate(1.000000, 460.000000)">
                <path d="M232.091691,157.389017 C252.787023,63.7601112 293.782176,0 340.974212,0 C409.020757,0 464.183381,132.563447 464.183381,296.088747 C464.183381,459.614046 409.020757,592.177493 340.974212,592.177493 C293.782176,592.177493 252.787023,528.417382 232.091691,434.788476 C211.396358,528.417382 170.401205,592.177493 123.209169,592.177493 C55.162624,592.177493 0,459.614046 0,296.088747 C0,132.563447 55.162624,0 123.209169,0 C170.401205,0 211.396358,63.7601112 232.091691,157.389017 Z" id="marvin--Combined-Shape" fill="#2DE7D1"></path>
                <g id="marvin--Eyes" transform="translate(76.135898, 83.028362)" fill="#4A4A4A">
                    <ellipse id="marvin--Oval" cx="47.4826034" cy="380.146386" rx="47.4826034" ry="39.7987191"></ellipse>
                    <ellipse id="marvin--Oval" cx="47.4826034" cy="39.7987191" rx="47.4826034" ry="39.7987191"></ellipse>
                </g>
            </g>
            <g class="Body" transform="translate(354.000000, 300.000000)">
                <use id="marvin--Combined-Shape" stroke="#979797" mask="url(#marvin--mask-2)" stroke-width="1.62" fill="#D8D8D8" xlink:href="#marvin--path-1"></use>
                <path d="M432.819506,455.17683 L280.652094,303.009418 L312.588218,298.458305 L311.521652,269.450031 L339.064368,270.462712 L341.690511,243.766061 L367.308036,244.707957 L366.30248,217.359032 L518.469892,369.526444 L670.637304,521.693856 L643.288379,520.6883 L644.230275,546.305825 L617.533624,548.931968 L618.546305,576.474684 L589.538031,575.408118 L584.986918,607.344242 L432.819506,455.17683 Z" id="marvin--Combined-Shape" fill="#2DE7D1"></path>
                <path d="M417.111222,430.564551 L280.181832,293.635161 L308.719721,289.739951 L307.606683,263.789839 L332.245742,264.846644 L334.448049,240.984246 L357.364877,241.967182 L356.315508,217.501485 L493.244898,354.430875 L630.174288,491.360265 L605.70859,490.310895 L606.691527,513.227723 L582.829128,515.430031 L583.885933,540.06909 L557.935821,538.956051 L554.040612,567.493941 L417.111222,430.564551 Z" id="marvin--Combined-Shape" fill="#2DE7D1" transform="translate(455.178060, 392.497713) scale(1, -1) translate(-455.178060, -392.497713) "></path>
            </g>
        </g>
    </g>
</svg>
