<svg viewBox="0 0 2000 1500" version="1.1" xmlns="http://www.w3.org/2000/svg" xmlns:xlink="http://www.w3.org/1999/xlink">
    <defs>
        <path d="M1782.77317,356.089795 C1812.32567,330.151152 1831.90362,284.973676 1831.90362,233.623952 C1831.90362,162.874658 1794.90512,103.981702 1745.6214,90.7648013 C1743.05008,40.2295913 1712.47989,0.384521989 1674.76713,0.384521989 C1646.14505,0.384521989 1621.43771,23.3293238 1610.04529,56.4288692 C1584.48957,25.5538984 1538.34381,5 1485.61146,5 C1429.43963,5 1380.65371,28.4276218 1356.35794,62.7119464 C1326.01586,65.082733 1299.17655,76.0220335 1280.36807,92.1620541 C1277.10664,91.7487598 1273.78923,91.4534241 1270.42443,91.2822168 C1257.20753,41.9985003 1198.31457,5 1127.56528,5 C1071.39345,5 1022.60754,28.4276218 998.311762,62.7119464 C991.304816,63.259436 984.484671,64.2638794 977.907092,65.6838007 C954.188716,53.3612085 925.233526,46.1328686 893.961981,46.1328686 C856.430598,46.1328686 822.196498,56.5916292 796.361575,73.7594632 C775.385941,33.4846122 722.436324,5 660.358683,5 C604.186853,5 555.400939,28.4276218 531.105165,62.7119464 C524.098219,63.259436 517.278074,64.2638794 510.700495,65.6838007 C486.982119,53.3612085 458.026929,46.1328686 426.755385,46.1328686 C370.583555,46.1328686 321.797641,69.5604904 297.501867,103.844815 C291.758874,104.293545 286.141369,105.049242 280.680053,106.08907 C267.772012,88.6952449 250.017175,77.9484134 230.428761,77.9484134 C192.716004,77.9484134 162.145814,117.793483 159.57449,168.328693 C110.290773,181.545594 73.2922729,240.43855 73.2922729,311.187844 C73.2922729,318.399963 73.6784771,325.490326 74.424278,332.42273 C31.3987324,351.393375 0.417782237,406.206092 0.417782237,470.946796 C0.417782237,527.118625 23.845404,575.90454 58.1297286,600.200314 C62.7009719,658.704537 99.1280667,704.186226 143.269135,704.186226 C157.438329,704.186226 170.812203,699.491194 182.595052,691.183782 C191.974178,707.365682 203.821191,720.781247 217.361661,730.376775 C221.932904,788.880998 258.359999,834.362687 302.501067,834.362687 C321.543938,834.362687 339.150274,825.882349 353.388486,811.54983 C376.614534,823.0752 404.61095,829.794145 434.760482,829.794145 C490.932311,829.794145 539.718226,806.366523 564.014,772.082198 C594.356081,769.711412 621.19539,758.772111 640.003874,742.63209 C643.265298,743.045385 646.582707,743.34072 649.947508,743.511928 C663.164409,792.795644 722.057365,829.794145 792.806659,829.794145 C848.978489,829.794145 897.764403,806.366523 922.060177,772.082198 C929.067123,771.534709 935.887268,770.530265 942.464847,769.110344 C966.183223,781.432936 995.138413,788.661276 1026.40996,788.661276 C1063.94134,788.661276 1098.17544,778.202515 1124.01036,761.034681 C1144.986,801.309532 1197.93561,829.794145 1260.01326,829.794145 C1316.18509,829.794145 1364.971,806.366523 1389.26677,772.082198 C1401.75495,771.106431 1413.64977,768.679178 1424.63552,765.035243 C1446.97485,803.144129 1498.42151,829.721662 1558.38507,829.721662 C1614.5569,829.721662 1663.34281,806.29404 1687.63859,772.009716 C1746.14281,767.438472 1791.6245,731.011378 1791.6245,686.87031 C1791.6245,659.08305 1773.56774,634.354531 1745.61989,618.686186 C1758.98597,594.391755 1766.88885,564.226153 1766.88885,531.528037 C1766.88885,503.105379 1760.89066,476.573743 1750.52284,454.148986 C1775.67761,438.433177 1791.6245,415.000456 1791.6245,388.863043 C1791.6245,377.259595 1788.47586,366.189512 1782.77318,356.089794 Z" id="muhittin-3--path-1"></path>
        <mask id="muhittin-3--mask-2" maskContentUnits="userSpaceOnUse" maskUnits="objectBoundingBox" x="0" y="0" width="1831.48584" height="833.978165" fill="white">
            <use xlink:href="#muhittin-3--path-1"></use>
        </mask>
    </defs>
    <g id="muhittin-3--Page-1" stroke="none" stroke-width="1" fill="none" fill-rule="evenodd">
        <g id="muhittin-3--muhittin-3">
            <g id="muhittin-3--Leg-Bottom" transform="translate(1177.500000, 1013.000000) scale(1, -1) translate(-1177.500000, -1013.000000) translate(876.000000, 576.000000)" fill="#7ED321">
                <path d="M376.262626,82.4999311 L376.262626,873.179271 L225.757576,873.179271 L225.757576,82.4999311 L9.09494702e-13,82.4999311 L9.09494702e-13,0 L602.020202,0 L602.020202,82.4999311 L376.262626,82.4999311 Z" id="muhittin-3--Combined-Shape"></path>
            </g>
            <g id="muhittin-3--Leg-Top" transform="translate(1177.500000, 476.500000) scale(-1, 1) translate(-1177.500000, -476.500000) translate(876.000000, 50.000000)" fill="#7ED321">
                <path d="M376.262626,80.5176673 L376.262626,852.198991 L225.757576,852.198991 L225.757576,80.5176673 L9.09494702e-13,80.5176673 L9.09494702e-13,0 L602.020202,0 L602.020202,80.5176673 L376.262626,80.5176673 Z" id="muhittin-3--Combined-Shape"></path>
            </g>
            <g class="Body" transform="translate(201.000000, 335.000000)">
                <use id="muhittin-3--Combined-Shape" stroke="#979797" mask="url(#muhittin-3--mask-2)" stroke-width="1.62" fill="#D8D8D8" xlink:href="#muhittin-3--path-1"></use>
                <path d="M460.614708,467.329627 L308.447296,315.162215 L343.430526,307.563996 L344.697415,276.222267 L374.455696,275.019383 L379.530632,245.87394 L407.208856,244.755136 L408.403276,215.206235 L560.570688,367.373647 L712.7381,519.541059 L683.189199,520.735479 L682.070396,548.413704 L652.924952,553.488639 L651.722068,583.24692 L620.380339,584.513809 L612.78212,619.497039 L460.614708,467.329627 Z" id="muhittin-3--Combined-Shape" fill="#2DE7D1"></path>
                <path d="M442.282777,441.922593 L305.353387,304.993203 L336.599815,298.389454 L337.560959,270.36516 L364.169409,269.452574 L368.548421,243.413471 L393.296982,242.564674 L394.203147,216.143442 L531.132537,353.072833 L668.061927,490.002223 L641.640695,490.908387 L640.791898,515.656949 L614.752795,520.035961 L613.84021,546.64441 L585.815915,547.605555 L579.212167,578.851983 L442.282777,441.922593 Z" id="muhittin-3--Combined-Shape" fill="#2DE7D1" transform="translate(486.707657, 397.497713) scale(1, -1) translate(-486.707657, -397.497713) "></path>
            </g>
            <g id="muhittin-3--Eye-2" transform="translate(0.000000, 626.000000)" fill="#4A4A4A">
                <path d="M201.264489,270.41185 L201.264489,103.504335 C201.264489,46.3404694 156.209898,0 100.632244,0 C45.0545905,0 0,46.3404694 0,103.504335 C0,137.753985 16.1736538,168.118263 41.0938587,186.958092 C16.1736552,205.797919 0,236.162198 0,270.41185 C0,327.575716 45.0545905,373.916185 100.632244,373.916185 C156.209898,373.916185 201.264489,327.575716 201.264489,270.41185 Z M101.159115,164.739884 C133.749153,164.739884 160.168599,137.566415 160.168599,104.046243 C160.168599,70.5260701 133.749153,43.3526012 101.159115,43.3526012 C68.5690769,43.3526012 42.1496312,70.5260701 42.1496312,104.046243 C42.1496312,137.566415 68.5690769,164.739884 101.159115,164.739884 Z M101.159115,331.647399 C133.749153,331.647399 160.168599,304.47393 160.168599,270.953757 C160.168599,237.433585 133.749153,210.260116 101.159115,210.260116 C68.5690769,210.260116 42.1496312,237.433585 42.1496312,270.953757 C42.1496312,304.47393 68.5690769,331.647399 101.159115,331.647399 Z" id="muhittin-3--Combined-Shape" transform="translate(100.632244, 186.958092) scale(1, -1) translate(-100.632244, -186.958092) "></path>
            </g>
        </g>
    </g>
</svg>
