<svg viewBox="0 0 2000 1500" version="1.1" xmlns="http://www.w3.org/2000/svg" xmlns:xlink="http://www.w3.org/1999/xlink">
    <defs></defs>
    <g id="muhittin--Page-1" stroke="none" stroke-width="1" fill="none" fill-rule="evenodd">
        <g id="muhittin--muhittin">
            <g id="muhittin--Leg-Top" transform="translate(870.389884, 0.000000)" fill="#4A4A4A">
                <g id="muhittin--Leg-Top-2" transform="translate(335.089568, 0.000000)">
                    <polygon id="muhittin--Rectangle-Leg" points="94.8366702 582.761578 1.00753611 582.763805 0 1.78486787 94.8366702 0"></polygon>
                </g>
                <g id="muhittin--Leg-Top-1">
                    <polygon id="muhittin--Rectangle-Leg" points="94.8366702 582.761578 1.00753611 582.763805 0 1.78486787 94.8366702 0"></polygon>
                </g>
            </g>
            <g id="muhittin--Leg-Bottom" transform="translate(870.389884, 916.907514)" fill="#4A4A4A">
                <g id="muhittin--Leg-Bottom-2" transform="translate(335.089568, 0.000000)">
                    <polygon id="muhittin--Rectangle-Leg" points="94.8366702 582.761578 1.00753611 582.763805 0 1.78486787 94.8366702 0"></polygon>
                </g>
                <g id="muhittin--Leg-Bottom-1">
                    <polygon id="muhittin--Rectangle-Leg" points="94.8366702 582.761578 1.00753611 582.763805 0 1.78486787 94.8366702 0"></polygon>
                </g>
            </g>
            <g class="Body" transform="translate(190.727081, 334.898844)">
                <path d="M443.808571,623.003061 C443.808571,623.003061 1.59385592e-14,542.802314 0,418.347836 C0,293.893358 443.808571,213.690435 443.808571,213.690435 C443.808571,213.690435 634.301812,1.62804579e-14 925.364258,0 C1216.4267,0 1364.01954,213.690435 1364.01954,213.690435 C1364.01954,213.690435 1806.84265,293.232307 1808.28883,418.346748 C1809.73502,543.461189 1369.78234,628.674482 1369.78234,628.674482 C1369.78234,628.674482 1184.44867,830.202312 925.364258,830.202312 C666.279842,830.202312 443.808571,623.003061 443.808571,623.003061 Z" id="muhittin--Body-1" fill="#F6A623"></path>
                <g id="muhittin--Body-Stuff" transform="translate(569.020021, 202.673410)" fill="#EF001D">
                    <ellipse id="muhittin--Oval-2" cx="993.677555" cy="212.427746" rx="120.126449" ry="69.3641618"></ellipse>
                    <ellipse id="muhittin--Oval" cx="60.5900948" cy="212.427746" rx="60.5900948" ry="212.427746"></ellipse>
                </g>
            </g>
            <g id="muhittin--Eye-2" transform="translate(0.000000, 563.583815)" fill="#4A4A4A">
                <path d="M201.264489,270.41185 L201.264489,103.504335 C201.264489,46.3404694 156.209898,0 100.632244,0 C45.0545905,0 0,46.3404694 0,103.504335 C0,137.753985 16.1736538,168.118263 41.0938587,186.958092 C16.1736552,205.797919 0,236.162198 0,270.41185 C0,327.575716 45.0545905,373.916185 100.632244,373.916185 C156.209898,373.916185 201.264489,327.575716 201.264489,270.41185 Z M101.159115,164.739884 C133.749153,164.739884 160.168599,137.566415 160.168599,104.046243 C160.168599,70.5260701 133.749153,43.3526012 101.159115,43.3526012 C68.5690769,43.3526012 42.1496312,70.5260701 42.1496312,104.046243 C42.1496312,137.566415 68.5690769,164.739884 101.159115,164.739884 Z M101.159115,331.647399 C133.749153,331.647399 160.168599,304.47393 160.168599,270.953757 C160.168599,237.433585 133.749153,210.260116 101.159115,210.260116 C68.5690769,210.260116 42.1496312,237.433585 42.1496312,270.953757 C42.1496312,304.47393 68.5690769,331.647399 101.159115,331.647399 Z" id="muhittin--Combined-Shape" transform="translate(100.632244, 186.958092) scale(1, -1) translate(-100.632244, -186.958092) "></path>
            </g>
        </g>
    </g>
</svg>
