<svg viewBox="0 0 2000 1500" version="1.1" xmlns="http://www.w3.org/2000/svg" xmlns:xlink="http://www.w3.org/1999/xlink">
    <defs></defs>
    <g id="muhittin-4--Page-1" stroke="none" stroke-width="1" fill="none" fill-rule="evenodd">
        <g id="muhittin-4--muhittin-4">
            <g id="muhittin-4--Leg-Top" transform="translate(1093.010101, 476.099495) scale(-1, 1) translate(-1093.010101, -476.099495) translate(792.000000, 50.000000)" fill="#7ED321">
                <path d="M376.262626,80.5176673 L376.262626,852.198991 L225.757576,852.198991 L225.757576,80.5176673 L0,80.5176673 L0,0 L602.020202,0 L602.020202,80.5176673 L376.262626,80.5176673 Z" id="muhittin-4--Combined-Shape"></path>
            </g>
            <g id="muhittin-4--Leg-Bottom" transform="translate(1093.010101, 1024.099495) scale(1, -1) translate(-1093.010101, -1024.099495) translate(792.000000, 598.000000)" fill="#7ED321">
                <path d="M376.262626,80.5176673 L376.262626,852.198991 L225.757576,852.198991 L225.757576,80.5176673 L0,80.5176673 L0,0 L602.020202,0 L602.020202,80.5176673 L376.262626,80.5176673 Z" id="muhittin-4--Combined-Shape"></path>
            </g>
            <g class="Body" transform="translate(1093.500000, 749.629776) scale(-1, 1) translate(-1093.500000, -749.629776) translate(187.000000, 360.129776)">
                <path d="M1177.16674,129.182374 C1110.42507,49.8770691 1013.62535,0 905.916667,0 C798.521408,0 701.971719,49.5872102 635.25,128.490795 C568.528281,49.5872102 471.978592,0 364.583333,0 C163.229518,0 0,174.308749 0,389.329488 C0,604.350227 163.229518,778.658976 364.583333,778.658976 C471.978592,778.658976 568.528281,729.071766 635.25,650.168182 C701.971719,729.071766 798.521408,778.658976 905.916667,778.658976 C1013.62535,778.658976 1110.42507,728.781907 1177.16674,649.476602 C1243.90833,728.781946 1340.70802,778.658976 1448.41667,778.658976 C1649.77048,778.658976 1813,604.350227 1813,389.329488 C1813,174.308749 1649.77048,0 1448.41667,0 C1340.70802,0 1243.90833,49.8770303 1177.16667,129.182282 Z" id="muhittin-4--Combined-Shape" fill="#F8E81C"></path>
                <ellipse id="muhittin-4--Oval-2" fill="#9012FE" cx="245" cy="193.583273" rx="46.6666667" ry="43.258832"></ellipse>
                <ellipse id="muhittin-4--Oval-2" fill="#9012FE" cx="389.666667" cy="389.329488" rx="46.6666667" ry="43.258832"></ellipse>
                <ellipse id="muhittin-4--Oval-2" fill="#9012FE" cx="239.166667" cy="482.335977" rx="46.6666667" ry="43.258832"></ellipse>
                <ellipse id="muhittin-4--Oval-2" fill="#9012FE" cx="848.166667" cy="236.842105" rx="46.6666667" ry="43.258832"></ellipse>
                <ellipse id="muhittin-4--Oval-2" fill="#9012FE" cx="1152.66667" cy="389.329488" rx="46.6666667" ry="43.258832"></ellipse>
                <ellipse id="muhittin-4--Oval-2" fill="#9012FE" cx="953.166667" cy="525.594809" rx="46.6666667" ry="43.258832"></ellipse>
                <ellipse id="muhittin-4--Oval-2" fill="#9012FE" cx="1516.66667" cy="150.324441" rx="46.6666667" ry="43.258832"></ellipse>
                <ellipse id="muhittin-4--Oval-2" fill="#9012FE" cx="1481.66667" cy="608.868061" rx="46.6666667" ry="43.258832"></ellipse>
                <ellipse id="muhittin-4--Oval-2" fill="#9012FE" cx="393.166667" cy="554.794521" rx="46.6666667" ry="43.258832"></ellipse>
                <ellipse id="muhittin-4--Oval-2" fill="#9012FE" cx="256.666667" cy="638.067772" rx="46.6666667" ry="43.258832"></ellipse>
            </g>
            <g id="muhittin-4--Eye-2" transform="translate(0.000000, 566.000000)" fill="#4A4A4A">
                <path d="M201.264489,270.41185 L201.264489,103.504335 C201.264489,46.3404694 156.209898,0 100.632244,0 C45.0545905,0 0,46.3404694 0,103.504335 C0,137.753985 16.1736538,168.118263 41.0938587,186.958092 C16.1736552,205.797919 0,236.162198 0,270.41185 C0,327.575716 45.0545905,373.916185 100.632244,373.916185 C156.209898,373.916185 201.264489,327.575716 201.264489,270.41185 Z M101.159115,164.739884 C133.749153,164.739884 160.168599,137.566415 160.168599,104.046243 C160.168599,70.5260701 133.749153,43.3526012 101.159115,43.3526012 C68.5690769,43.3526012 42.1496312,70.5260701 42.1496312,104.046243 C42.1496312,137.566415 68.5690769,164.739884 101.159115,164.739884 Z M101.159115,331.647399 C133.749153,331.647399 160.168599,304.47393 160.168599,270.953757 C160.168599,237.433585 133.749153,210.260116 101.159115,210.260116 C68.5690769,210.260116 42.1496312,237.433585 42.1496312,270.953757 C42.1496312,304.47393 68.5690769,331.647399 101.159115,331.647399 Z" id="muhittin-4--Combined-Shape" transform="translate(100.632244, 186.958092) scale(1, -1) translate(-100.632244, -186.958092) "></path>
            </g>
        </g>
    </g>
</svg>
