<svg viewBox="0 0 2000 1500" version="1.1" xmlns="http://www.w3.org/2000/svg" xmlns:xlink="http://www.w3.org/1999/xlink">
    <defs></defs>
    <g id="muhittin-2--Page-1" stroke="none" stroke-width="1" fill="none" fill-rule="evenodd">
        <g id="muhittin-2--muhittin-2">
            <g id="muhittin-2--Leg-Top" transform="translate(809.000000, 3.000000)" fill="#EF001D">
                <g id="muhittin-2--Leg-Top-3" transform="translate(421.975993, 0.000000)">
                    <path d="M132.963989,691.746453 L33.3868938,691.74843 L32.3176362,175.985217 C32.3176362,175.985217 70.0766932,69.130272 82.6399202,70.2460088 C95.2031472,71.3617455 132.963989,174.400703 132.963989,174.400703 L132.963989,691.746453 Z" id="muhittin-2--Path-2"></path>
                </g>
                <g id="muhittin-2--Leg-Top-2" transform="translate(243.449677, 70.000000)">
                    <path d="M100.963989,621.746453 L1.38689384,621.74843 L0.317636196,105.985217 C0.317636196,105.985217 38.0766932,-0.869727995 50.6399202,0.246008753 C63.2031472,1.3617455 100.963989,104.400703 100.963989,104.400703 L100.963989,621.746453 Z" id="muhittin-2--Path-2"></path>
                </g>
                <g id="muhittin-2--Leg-Top-1">
                    <path d="M132.963989,691.746453 L33.3868938,691.74843 L32.3176362,175.985217 C32.3176362,175.985217 70.0766932,69.130272 82.6399202,70.2460088 C95.2031472,71.3617455 132.963989,174.400703 132.963989,174.400703 L132.963989,691.746453 Z" id="muhittin-2--Path-2"></path>
                </g>
            </g>
            <g id="muhittin-2--Leg-Bottom" transform="translate(1101.000000, 1145.500000) scale(-1, 1) translate(-1101.000000, -1145.500000) translate(809.000000, 788.000000)" fill="#EF001D">
                <g id="muhittin-2--Leg-Bottom-3" transform="translate(502.770083, 357.440667) scale(1, -1) translate(-502.770083, -357.440667) translate(421.975993, 0.000000)">
                    <path d="M132.963989,691.746453 L33.3868938,691.74843 L32.3176362,175.985217 C32.3176362,175.985217 70.0766932,69.130272 82.6399202,70.2460088 C95.2031472,71.3617455 132.963989,174.400703 132.963989,174.400703 L132.963989,691.746453 Z" id="muhittin-2--Path-2"></path>
                </g>
                <g id="muhittin-2--Leg-Bottom-2" transform="translate(292.243767, 357.440667) scale(1, -1) translate(-292.243767, -357.440667) translate(211.449677, 0.000000)">
                    <path d="M132.963989,691.746453 L33.3868938,691.74843 L32.3176362,175.985217 C32.3176362,175.985217 70.0766932,69.130272 82.6399202,70.2460088 C95.2031472,71.3617455 132.963989,174.400703 132.963989,174.400703 L132.963989,691.746453 Z" id="muhittin-2--Path-2"></path>
                </g>
                <g id="muhittin-2--Leg-Bottom-1" transform="translate(80.794090, 357.440667) scale(1, -1) translate(-80.794090, -357.440667) ">
                    <path d="M132.963989,691.746453 L33.3868938,691.74843 L32.3176362,175.985217 C32.3176362,175.985217 70.0766932,69.130272 82.6399202,70.2460088 C95.2031472,71.3617455 132.963989,174.400703 132.963989,174.400703 L132.963989,691.746453 Z" id="muhittin-2--Path-2"></path>
                </g>
            </g>
            <g class="Body" transform="translate(201.000000, 384.000000)">
                <path d="M441.288658,553.070068 C441.288658,553.070068 1.58480612e-14,481.871971 0,371.387688 C0,260.903405 441.288658,189.703375 441.288658,189.703375 C441.288658,189.703375 630.700293,1.4452953e-14 920.110108,0 C1209.51992,0 1356.27474,189.703375 1356.27474,189.703375 C1356.27474,189.703375 1796.58353,260.316558 1798.0215,371.386722 C1799.45948,482.456886 1362.00482,558.104864 1362.00482,558.104864 C1362.00482,558.104864 1177.72346,737.010904 920.110108,737.010904 C662.496754,737.010904 441.288658,553.070068 441.288658,553.070068 Z" id="muhittin-2--Body-1" fill="#F6A623"></path>
                <g id="muhittin-2--Body-Stuff" transform="translate(565.789167, 179.923028)" fill="#EF001D">
                    <ellipse id="muhittin-2--Oval-2" cx="988.035527" cy="188.582425" rx="119.44438" ry="61.5779346"></ellipse>
                    <ellipse id="muhittin-2--Oval" cx="60.2460687" cy="188.582425" rx="60.2460687" ry="188.582425"></ellipse>
                </g>
            </g>
            <g id="muhittin-2--Eye-2" transform="translate(0.000000, 566.000000)" fill="#4A4A4A">
                <path d="M201.264489,270.41185 L201.264489,103.504335 C201.264489,46.3404694 156.209898,0 100.632244,0 C45.0545905,0 0,46.3404694 0,103.504335 C0,137.753985 16.1736538,168.118263 41.0938587,186.958092 C16.1736552,205.797919 0,236.162198 0,270.41185 C0,327.575716 45.0545905,373.916185 100.632244,373.916185 C156.209898,373.916185 201.264489,327.575716 201.264489,270.41185 Z M101.159115,164.739884 C133.749153,164.739884 160.168599,137.566415 160.168599,104.046243 C160.168599,70.5260701 133.749153,43.3526012 101.159115,43.3526012 C68.5690769,43.3526012 42.1496312,70.5260701 42.1496312,104.046243 C42.1496312,137.566415 68.5690769,164.739884 101.159115,164.739884 Z M101.159115,331.647399 C133.749153,331.647399 160.168599,304.47393 160.168599,270.953757 C160.168599,237.433585 133.749153,210.260116 101.159115,210.260116 C68.5690769,210.260116 42.1496312,237.433585 42.1496312,270.953757 C42.1496312,304.47393 68.5690769,331.647399 101.159115,331.647399 Z" id="muhittin-2--Combined-Shape" transform="translate(100.632244, 186.958092) scale(1, -1) translate(-100.632244, -186.958092) "></path>
            </g>
        </g>
    </g>
</svg>
