<svg viewBox="0 0 2000 1500" version="1.1" xmlns="http://www.w3.org/2000/svg" xmlns:xlink="http://www.w3.org/1999/xlink">
    <defs></defs>
    <g id="muserref--Page-1" stroke="none" stroke-width="1" fill="none" fill-rule="evenodd">
        <g id="muserref--muserref">
            <g id="muserref--Leg-Top" transform="translate(1215.151515, 426.099495) scale(-1, 1) translate(-1215.151515, -426.099495) translate(914.141414, 0.000000)" fill="#7ED321">
                <path d="M376.262626,80.5176673 L376.262626,852.198991 L225.757576,852.198991 L225.757576,80.5176673 L0,80.5176673 L0,0 L602.020202,0 L602.020202,80.5176673 L376.262626,80.5176673 Z" id="muserref--Combined-Shape"></path>
            </g>
            <g id="muserref--Leg-Bottom" transform="translate(1215.151515, 1073.900505) scale(-1, -1) translate(-1215.151515, -1073.900505) translate(914.141414, 647.801009)" fill="#7ED321">
                <path d="M376.262626,80.5176673 L376.262626,852.198991 L225.757576,852.198991 L225.757576,80.5176673 L0,80.5176673 L0,0 L602.020202,0 L602.020202,80.5176673 L376.262626,80.5176673 Z" id="muserref--Combined-Shape"></path>
            </g>
            <g class="Body" transform="translate(1215.151515, 749.459265) scale(-1, 1) translate(-1215.151515, -749.459265) translate(430.303030, 360.129776)">
                <path d="M1019.19199,129.182374 C961.406991,49.8770691 877.597709,0 784.343434,0 C691.360527,0 607.767722,49.5872102 550,128.490795 C492.232278,49.5872102 408.639473,0 315.656566,0 C141.324258,0 0,174.308749 0,389.329488 C0,604.350227 141.324258,778.658976 315.656566,778.658976 C408.639473,778.658976 492.232278,729.071766 550,650.168182 C607.767722,729.071766 691.360527,778.658976 784.343434,778.658976 C877.597709,778.658976 961.406991,728.781907 1019.19199,649.476602 C1076.97691,728.781946 1160.78617,778.658976 1254.0404,778.658976 C1428.37271,778.658976 1569.69697,604.350227 1569.69697,389.329488 C1569.69697,174.308749 1428.37271,0 1254.0404,0 C1160.78617,0 1076.97691,49.8770303 1019.19192,129.182282 Z" id="muserref--Combined-Shape" fill="#F8E81C"></path>
                <ellipse id="muserref--Oval-2" fill="#9012FE" cx="212.121212" cy="193.583273" rx="40.4040404" ry="43.258832"></ellipse>
                <ellipse id="muserref--Oval-2" fill="#9012FE" cx="337.373737" cy="389.329488" rx="40.4040404" ry="43.258832"></ellipse>
                <ellipse id="muserref--Oval-2" fill="#9012FE" cx="207.070707" cy="482.335977" rx="40.4040404" ry="43.258832"></ellipse>
                <ellipse id="muserref--Oval-2" fill="#9012FE" cx="734.343434" cy="236.842105" rx="40.4040404" ry="43.258832"></ellipse>
                <ellipse id="muserref--Oval-2" fill="#9012FE" cx="997.979798" cy="389.329488" rx="40.4040404" ry="43.258832"></ellipse>
                <ellipse id="muserref--Oval-2" fill="#9012FE" cx="825.252525" cy="525.594809" rx="40.4040404" ry="43.258832"></ellipse>
                <ellipse id="muserref--Oval-2" fill="#9012FE" cx="1313.13131" cy="150.324441" rx="40.4040404" ry="43.258832"></ellipse>
                <ellipse id="muserref--Oval-2" fill="#9012FE" cx="1282.82828" cy="608.868061" rx="40.4040404" ry="43.258832"></ellipse>
                <ellipse id="muserref--Oval-2" fill="#9012FE" cx="340.40404" cy="554.794521" rx="40.4040404" ry="43.258832"></ellipse>
                <ellipse id="muserref--Oval-2" fill="#9012FE" cx="222.222222" cy="638.067772" rx="40.4040404" ry="43.258832"></ellipse>
            </g>
            <g id="muserref--Head-4" transform="translate(233.333333, 750.000000) scale(-1, 1) translate(-233.333333, -750.000000) translate(-0.000000, 426.099495)">
                <path d="M229.79798,647.801009 C356.7119,647.801009 466.329351,398.006151 466.329351,323.900505 C466.329351,249.794858 356.7119,0 229.79798,0 C102.88406,0 0,145.015195 0,323.900505 C0,502.785814 102.88406,647.801009 229.79798,647.801009 Z" id="muserref--Oval" fill="#EF001D"></path>
                <ellipse id="muserref--Oval-2" fill="#F8E81C" cx="233.333333" cy="173.035328" rx="40.4040404" ry="43.258832"></ellipse>
                <ellipse id="muserref--Oval-2" fill="#F8E81C" cx="233.333333" cy="474.765681" rx="40.4040404" ry="43.258832"></ellipse>
            </g>
        </g>
    </g>
</svg>
