<svg viewBox="0 0 2000 1500" version="1.1" xmlns="http://www.w3.org/2000/svg" xmlns:xlink="http://www.w3.org/1999/xlink">
    <defs></defs>
    <g id="muserref-3--Page-1" stroke="none" stroke-width="1" fill="none" fill-rule="evenodd">
        <g id="muserref-3--muserref-3">
            <g id="muserref-3--Leg-Top" transform="translate(864.000000, 3.000000)" fill="#EF001D">
                <g id="muserref-3--Leg-Top-3" transform="translate(421.975993, 0.000000)">
                    <path d="M132.963989,691.746453 L33.3868938,691.74843 L32.3176362,175.985217 C32.3176362,175.985217 70.0766932,69.130272 82.6399202,70.2460088 C95.2031472,71.3617455 132.963989,174.400703 132.963989,174.400703 L132.963989,691.746453 Z" id="muserref-3--Path-2"></path>
                </g>
                <g id="muserref-3--Leg-Top-2" transform="translate(243.449677, 70.000000)">
                    <path d="M100.963989,621.746453 L1.38689384,621.74843 L0.317636196,105.985217 C0.317636196,105.985217 38.0766932,-0.869727995 50.6399202,0.246008753 C63.2031472,1.3617455 100.963989,104.400703 100.963989,104.400703 L100.963989,621.746453 Z" id="muserref-3--Path-2"></path>
                </g>
                <g id="muserref-3--Leg-Top-1">
                    <path d="M132.963989,691.746453 L33.3868938,691.74843 L32.3176362,175.985217 C32.3176362,175.985217 70.0766932,69.130272 82.6399202,70.2460088 C95.2031472,71.3617455 132.963989,174.400703 132.963989,174.400703 L132.963989,691.746453 Z" id="muserref-3--Path-2"></path>
                </g>
            </g>
            <g id="muserref-3--Leg-Bottom" transform="translate(864.000000, 788.000000)" fill="#EF001D">
                <g id="muserref-3--Leg-Bottom-3" transform="translate(502.770083, 357.440667) scale(1, -1) translate(-502.770083, -357.440667) translate(421.975993, 0.000000)">
                    <path d="M132.963989,691.746453 L33.3868938,691.74843 L32.3176362,175.985217 C32.3176362,175.985217 70.0766932,69.130272 82.6399202,70.2460088 C95.2031472,71.3617455 132.963989,174.400703 132.963989,174.400703 L132.963989,691.746453 Z" id="muserref-3--Path-2"></path>
                </g>
                <g id="muserref-3--Leg-Bottom-2" transform="translate(293.949677, 333.881334) scale(1, -1) translate(-293.949677, -333.881334) translate(243.449677, 22.881334)">
                    <path d="M100.963989,621.746453 L1.38689384,621.74843 L0.317636196,105.985217 C0.317636196,105.985217 38.0766932,-0.869727995 50.6399202,0.246008753 C63.2031472,1.3617455 100.963989,104.400703 100.963989,104.400703 L100.963989,621.746453 Z" id="muserref-3--Path-2"></path>
                </g>
                <g id="muserref-3--Leg-Bottom-1" transform="translate(80.794090, 357.440667) scale(1, -1) translate(-80.794090, -357.440667) ">
                    <path d="M132.963989,691.746453 L33.3868938,691.74843 L32.3176362,175.985217 C32.3176362,175.985217 70.0766932,69.130272 82.6399202,70.2460088 C95.2031472,71.3617455 132.963989,174.400703 132.963989,174.400703 L132.963989,691.746453 Z" id="muserref-3--Path-2"></path>
                </g>
            </g>
            <g class="Body" transform="translate(311.000000, 384.000000)">
                <path d="M414.306028,553.070068 C414.306028,553.070068 1.48790302e-14,481.871971 0,371.387688 C0,260.903405 414.306028,189.703375 414.306028,189.703375 C414.306028,189.703375 592.136072,1.4452953e-14 863.849901,0 C1135.56373,0 1273.34521,189.703375 1273.34521,189.703375 C1273.34521,189.703375 1686.73128,260.316558 1688.08133,371.386722 C1689.43138,482.456886 1278.72492,558.104864 1278.72492,558.104864 C1278.72492,558.104864 1105.71146,737.010904 863.849901,737.010904 C621.988337,737.010904 414.306028,553.070068 414.306028,553.070068 Z" id="muserref-3--Body-1" fill="#F6A623"></path>
                <g id="muserref-3--Body-Stuff" transform="translate(531.193943, 179.923028)" fill="#EF001D">
                    <ellipse id="muserref-3--Oval-2" cx="927.622015" cy="188.582425" rx="112.140944" ry="61.5779346"></ellipse>
                    <ellipse id="muserref-3--Oval" cx="56.562318" cy="188.582425" rx="56.562318" ry="188.582425"></ellipse>
                </g>
            </g>
            <g id="muserref-3--Head-4" transform="translate(233.166667, 750.099495) scale(-1, 1) translate(-233.166667, -750.099495) translate(-0.333333, 426.099495)">
                <path d="M229.79798,647.801009 C356.7119,647.801009 466.329351,398.006151 466.329351,323.900505 C466.329351,249.794858 356.7119,0 229.79798,0 C102.88406,0 6.82121026e-13,145.015195 6.82121026e-13,323.900505 C6.82121026e-13,502.785814 102.88406,647.801009 229.79798,647.801009 Z" id="muserref-3--Oval" fill="#EF001D"></path>
                <ellipse id="muserref-3--Oval-2" fill="#F8E81C" cx="233.333333" cy="173.035328" rx="40.4040404" ry="43.258832"></ellipse>
                <ellipse id="muserref-3--Oval-2" fill="#F8E81C" cx="233.333333" cy="474.765681" rx="40.4040404" ry="43.258832"></ellipse>
            </g>
        </g>
    </g>
</svg>
