<svg viewBox="0 0 86 48" version="1.1" xmlns="http://www.w3.org/2000/svg" xmlns:xlink="http://www.w3.org/1999/xlink">
    <defs></defs>
    <g id="Page-1" stroke="none" stroke-width="1" fill="none" fill-rule="evenodd">
        <g id="stone-graphic">
            <polygon id="big-stone-outside" fill="#000000" points="50.3 41.7 52 39.2 54.3 37.6 54.2 34.4 59.1 28.8 65.4 24.6 69.8 25.2 68.4 23.6 66.3 13.9 52.7 7.1 46.4 2 36.3 0.6 23.3 9.2 13.2 20.7 13.4 27.4 8.7 30.6 5.1 35.9 4.2 42.2 0.1 47.3 47.9 47.3 49.8 44.8"></polygon>
            <polygon id="big-stone-inside" fill="#FFFFFF" points="49.374462 40.9635974 50.9110473 38.7152034 52.989957 37.2762313 52.8995696 34.3982869 57.3285509 29.3618844 63.0229555 25.5845824 67 26.124197 65.7345768 24.6852248 63.8364419 15.9614561 51.543759 9.84582441 45.8493544 5.25910064 36.7202296 4 24.9698709 11.7344754 15.8407461 22.0770878 16.0215208 28.1027837 11.7733142 30.9807281 8.51936872 35.7473233 7.70588235 41.4132762 4 46 47.205165 46 48.9225251 43.751606"></polygon>
            <polygon id="small-stone-outside" fill="#000000" points="47 47.3 85.9 47.3 85.1640541 44.5278539 83.6921622 42.7152968 83.4818919 38.8769406 80.6432432 35.4650685 79.5918919 30.5605023 72.8632432 27.2552511 69.8143243 24.696347 64.7678378 23.95 58.4597297 28.2148402 53.4132432 33.9723744 53.5183784 37.3842466 51.2054054 38.8769406 49.4181081 41.5424658 48.9975676 44.7410959"></polygon>
            <polygon id="small-stone-inside" fill="#FFFFFF" points="50 46 83 46 82.3756757 43.7442922 81.127027 42.2694064 80.9486486 39.1461187 78.5405405 36.369863 77.6486486 32.3789954 71.9405405 29.6894977 69.3540541 27.6073059 65.072973 27 59.7216216 30.4703196 55.4405405 35.1552511 55.5297297 37.9315068 53.5675676 39.1461187 52.0513514 41.3150685 51.6945946 43.9178082"></polygon>
        </g>
    </g>
</svg>
