<svg xmlns="http://www.w3.org/2000/svg" xmlns:xlink="http://www.w3.org/1999/xlink" version="1.1" x="0px" y="0px" viewBox="0 0 90 112.5" enable-background="new 0 0 90 90" xml:space="preserve"><g><polygon points="50.9,66.3 87.9,66.3 87.2,63.7 85.8,62 85.6,58.4 82.9,55.2 81.9,50.6 75.5,47.5 72.6,45.1 67.8,44.4 61.8,48.4    57,53.8 57.1,57 54.9,58.4 53.2,60.9 52.8,63.9  "/><polygon points="52.3,60.7 54,58.2 56.3,56.6 56.2,53.4 61.1,47.8 67.4,43.6 71.8,44.2 70.4,42.6 68.3,32.9 54.7,26.1 48.4,21    38.3,19.6 25.3,28.2 15.2,39.7 15.4,46.4 10.7,49.6 7.1,54.9 6.2,61.2 2.1,66.3 49.9,66.3 51.8,63.8  "/></g></svg>
