<svg viewBox="0 0 2000 1500" version="1.1" xmlns="http://www.w3.org/2000/svg" xmlns:xlink="http://www.w3.org/1999/xlink">
    <defs></defs>
    <g id="sukufe-3--Page-1" stroke="none" stroke-width="1" fill="none" fill-rule="evenodd">
        <g id="sukufe-3--sukufe-3">
            <g id="sukufe-3--Sukufe3-Leg-Top" transform="translate(1185.010101, 485.099495) scale(-1, 1) translate(-1185.010101, -485.099495) translate(884.000000, 59.000000)" fill="#7ED321">
                <path d="M376.262626,80.5176673 L376.262626,852.198991 L225.757576,852.198991 L225.757576,80.5176673 L0,80.5176673 L0,0 L602.020202,0 L602.020202,80.5176673 L376.262626,80.5176673 Z" id="sukufe-3--Combined-Shape"></path>
            </g>
            <g id="sukufe-3--Sukufe3-Leg-Bottom" transform="translate(1185.010101, 1013.099495) scale(-1, -1) translate(-1185.010101, -1013.099495) translate(884.000000, 587.000000)" fill="#7ED321">
                <path d="M376.262626,80.5176673 L376.262626,852.198991 L225.757576,852.198991 L225.757576,80.5176673 L0,80.5176673 L0,0 L602.020202,0 L602.020202,80.5176673 L376.262626,80.5176673 Z" id="sukufe-3--Combined-Shape"></path>
            </g>
            <g id="sukufe-3--Sukufe3-Eye-Top" transform="translate(0.000000, 549.000000)">
                <path d="M0.025854109,0.0892552509 L278.984607,0.0892552509 C278.984607,0.0892552509 396.147738,157.105706 396.147738,175.87318 C396.147738,194.640654 278.984607,132.787825 278.984607,132.787825 L0.025854109,132.787825 L0.025854109,0.0892552509 Z" id="sukufe-3--Rectangle" fill="#7ED321"></path>
                <rect id="sukufe-3--Rectangle-2" fill="#F8E81C" x="60.9676824" y="41.8508864" width="133.88735" height="47.9030475"></rect>
            </g>
            <g id="sukufe-3--Sukufe3-Eye-Bottom" transform="translate(198.500000, 859.000000) scale(1, -1) translate(-198.500000, -859.000000) translate(0.000000, 769.000000)">
                <path d="M0.025854109,0.0892552509 L278.984607,0.0892552509 C278.984607,0.0892552509 396.147738,157.105706 396.147738,175.87318 C396.147738,194.640654 278.984607,132.787825 278.984607,132.787825 L0.025854109,132.787825 L0.025854109,0.0892552509 Z" id="sukufe-3--Rectangle" fill="#7ED321"></path>
                <rect id="sukufe-3--Rectangle-2" fill="#F8E81C" x="60.9676824" y="41.8508864" width="133.88735" height="47.9030475"></rect>
            </g>
            <g class="Body" transform="translate(1185.196970, 749.500000) scale(-1, 1) translate(-1185.196970, -749.500000) translate(370.696970, 360.000000)">
                <path d="M1057.50019,129.182374 C997.543242,49.8770691 910.583833,0 813.824425,0 C717.346584,0 630.61179,49.5872102 570.672762,128.490795 C510.733734,49.5872102 423.99894,0 327.521098,0 C146.63619,0 0,174.308749 0,389.329488 C0,604.350227 146.63619,778.658976 327.521098,778.658976 C423.99894,778.658976 510.733734,729.071766 570.672762,650.168182 C630.61179,729.071766 717.346584,778.658976 813.824425,778.658976 C910.583833,778.658976 997.543242,728.781907 1057.50019,649.476602 C1117.45707,728.781946 1204.41645,778.658976 1301.17582,778.658976 C1482.06073,778.658976 1628.69692,604.350227 1628.69692,389.329488 C1628.69692,174.308749 1482.06073,0 1301.17582,0 C1204.41645,0 1117.45707,49.8770303 1057.50012,129.182282 Z" id="sukufe-3--Combined-Shape" fill="#F8E81C"></path>
                <ellipse id="sukufe-3--Oval-2" fill="#9012FE" cx="220.094178" cy="193.583273" rx="41.9227006" ry="43.258832"></ellipse>
                <ellipse id="sukufe-3--Oval-2" fill="#9012FE" cx="350.05455" cy="389.329488" rx="41.9227006" ry="43.258832"></ellipse>
                <ellipse id="sukufe-3--Oval-2" fill="#9012FE" cx="214.85384" cy="482.335977" rx="41.9227006" ry="43.258832"></ellipse>
                <ellipse id="sukufe-3--Oval-2" fill="#9012FE" cx="761.945083" cy="236.842105" rx="41.9227006" ry="43.258832"></ellipse>
                <ellipse id="sukufe-3--Oval-2" fill="#9012FE" cx="1035.4907" cy="389.329488" rx="41.9227006" ry="43.258832"></ellipse>
                <ellipse id="sukufe-3--Oval-2" fill="#9012FE" cx="856.271159" cy="525.594809" rx="41.9227006" ry="43.258832"></ellipse>
                <ellipse id="sukufe-3--Oval-2" fill="#9012FE" cx="1362.48777" cy="150.324441" rx="41.9227006" ry="43.258832"></ellipse>
                <ellipse id="sukufe-3--Oval-2" fill="#9012FE" cx="1331.04574" cy="608.868061" rx="41.9227006" ry="43.258832"></ellipse>
                <ellipse id="sukufe-3--Oval-2" fill="#9012FE" cx="353.198752" cy="554.794521" rx="41.9227006" ry="43.258832"></ellipse>
                <ellipse id="sukufe-3--Oval-2" fill="#9012FE" cx="230.574853" cy="638.067772" rx="41.9227006" ry="43.258832"></ellipse>
            </g>
        </g>
    </g>
</svg>
