<svg viewBox="0 0 1896 1500" version="1.1" xmlns="http://www.w3.org/2000/svg" xmlns:xlink="http://www.w3.org/1999/xlink">
    <!-- Generator: Sketch 41.2 (35397) - http://www.bohemiancoding.com/sketch -->
    <title>Şukufe</title>
    <desc>Created with Sketch.</desc>
    <defs></defs>
    <g id="Page-1" stroke="none" stroke-width="1" fill="none" fill-rule="evenodd">
        <g id="Sukufe">
            <g transform="translate(0.000000, 553.000000)">
                <path d="M0.025854109,0.0892552509 L278.984607,0.0892552509 C278.984607,0.0892552509 396.147738,157.105706 396.147738,175.87318 C396.147738,194.640654 278.984607,132.787825 278.984607,132.787825 L0.025854109,132.787825 L0.025854109,0.0892552509 Z" fill="#7ED321"></path>
                <rect fill="#F8E81C" x="60.9676824" y="41.8508864" width="133.88735" height="47.9030475"></rect>
            </g>
            <g transform="translate(198.500000, 863.000000) scale(1, -1) translate(-198.500000, -863.000000) translate(0.000000, 773.000000)">
                <path d="M0.025854109,0.0892552509 L278.984607,0.0892552509 C278.984607,0.0892552509 396.147738,157.105706 396.147738,175.87318 C396.147738,194.640654 278.984607,132.787825 278.984607,132.787825 L0.025854109,132.787825 L0.025854109,0.0892552509 Z" fill="#7ED321"></path>
                <rect fill="#F8E81C" x="60.9676824" y="41.8508864" width="133.88735" height="47.9030475"></rect>
            </g>
            <g id="Leg-Top" transform="translate(809.000000, 0.000000)" fill="#EF001D">
                <g id="Leg-Top-3" transform="translate(421.975993, 0.000000)">
                    <path d="M132.963989,691.746453 L33.3868938,691.74843 L32.3176362,175.985217 C32.3176362,175.985217 70.0766932,69.130272 82.6399202,70.2460088 C95.2031472,71.3617455 132.963989,174.400703 132.963989,174.400703 L132.963989,691.746453 Z" id="Path-2"></path>
                </g>
                <g id="Leg-Top-2" transform="translate(243.449677, 70.000000)">
                    <path d="M100.963989,621.746453 L1.38689384,621.74843 L0.317636196,105.985217 C0.317636196,105.985217 38.0766932,-0.869727995 50.6399202,0.246008753 C63.2031472,1.3617455 100.963989,104.400703 100.963989,104.400703 L100.963989,621.746453 Z" id="Path-2"></path>
                </g>
                <g id="Leg-Top-1">
                    <path d="M132.963989,691.746453 L33.3868938,691.74843 L32.3176362,175.985217 C32.3176362,175.985217 70.0766932,69.130272 82.6399202,70.2460088 C95.2031472,71.3617455 132.963989,174.400703 132.963989,174.400703 L132.963989,691.746453 Z" id="Path-2"></path>
                </g>
            </g>
            <g id="Leg-Bottom" transform="translate(809.000000, 785.000000)" fill="#EF001D">
                <g id="Leg-Bottom-3" transform="translate(502.770083, 357.440667) scale(1, -1) translate(-502.770083, -357.440667) translate(421.975993, 0.000000)">
                    <path d="M132.963989,691.746453 L33.3868938,691.74843 L32.3176362,175.985217 C32.3176362,175.985217 70.0766932,69.130272 82.6399202,70.2460088 C95.2031472,71.3617455 132.963989,174.400703 132.963989,174.400703 L132.963989,691.746453 Z" id="Path-2"></path>
                </g>
                <g id="Leg-Bottom-2" transform="translate(292.243767, 357.440667) scale(1, -1) translate(-292.243767, -357.440667) translate(211.449677, 0.000000)">
                    <path d="M132.963989,691.746453 L33.3868938,691.74843 L32.3176362,175.985217 C32.3176362,175.985217 70.0766932,69.130272 82.6399202,70.2460088 C95.2031472,71.3617455 132.963989,174.400703 132.963989,174.400703 L132.963989,691.746453 Z" id="Path-2"></path>
                </g>
                <g id="Leg-Bottom-1" transform="translate(80.794090, 357.440667) scale(1, -1) translate(-80.794090, -357.440667) ">
                    <path d="M132.963989,691.746453 L33.3868938,691.74843 L32.3176362,175.985217 C32.3176362,175.985217 70.0766932,69.130272 82.6399202,70.2460088 C95.2031472,71.3617455 132.963989,174.400703 132.963989,174.400703 L132.963989,691.746453 Z" id="Path-2"></path>
                </g>
            </g>
            <g class="Body" transform="translate(311.000000, 384.000000)">
                <path d="M388.895968,553.070068 C388.895968,553.070068 1.39664752e-14,481.871971 0,371.387688 C0,260.903405 388.895968,189.703375 388.895968,189.703375 C388.895968,189.703375 555.819408,1.4452953e-14 810.868588,0 C1065.91777,0 1195.24889,189.703375 1195.24889,189.703375 C1195.24889,189.703375 1583.28132,260.316558 1584.54857,371.386722 C1585.81582,482.456886 1200.29865,558.104864 1200.29865,558.104864 C1200.29865,558.104864 1037.89639,737.010904 810.868588,737.010904 C583.840785,737.010904 388.895968,553.070068 388.895968,553.070068 Z" id="Body-1" fill="#F6A623"></path>
                <g id="Body-Stuff" transform="translate(498.614958, 179.923028)" fill="#EF001D">
                    <ellipse id="Oval-2" cx="870.729455" cy="188.582425" rx="105.263158" ry="61.5779346"></ellipse>
                    <ellipse id="Oval" cx="53.0932595" cy="188.582425" rx="53.0932595" ry="188.582425"></ellipse>
                </g>
            </g>
        </g>
    </g>
</svg>
